<svg xmlns="http://www.w3.org/2000/svg" viewBox="0 0 180 40"><title>Push-to-Pivotal-Dark</title><g id="Layer_2" data-name="Layer 2"><g id="Layer_1-2" data-name="Layer 1"><rect x="70" y="-70" width="40" height="180" rx="3" transform="translate(110 -70) rotate(90)" fill="#282828"/><polygon points="38.6 23.5 32.83 17.6 27.05 23.5 28.56 24.97 31.77 21.7 31.77 31.17 33.88 31.17 33.88 21.7 37.09 24.97 38.6 23.5" fill="#fff"/><path d="M28.41,12.36a5.79,5.79,0,0,0-.72,0A7.63,7.63,0,0,0,20.07,20a8.08,8.08,0,0,0,.22,1.85h3.18a4.61,4.61,0,0,1,4.22-6.46,4.62,4.62,0,0,1,2.13.52C29.42,14.81,28.41,12.36,28.41,12.36Z" fill="#038774"/><path d="M35.73,8.83a9.36,9.36,0,0,0-7.32,3.53s1,2.45,1.41,3.5A6.36,6.36,0,1,1,41,21.8h3.42a9.37,9.37,0,0,0-8.66-13Z" fill="#00b4a2"/><path d="M50.9,24.73V14.05h5a3.33,3.33,0,0,1,3.59,3.44,3.35,3.35,0,0,1-3.59,3.44H53.17v3.8Zm6.26-7.24a1.43,1.43,0,0,0-1.57-1.44H53.17v2.88h2.42A1.44,1.44,0,0,0,57.16,17.49Z" fill="#fff"/><path d="M66.05,24.73v-1a3.6,3.6,0,0,1-2.72,1.17,2.21,2.21,0,0,1-2.49-2.43V17h2v4.69a1.24,1.24,0,0,0,1.42,1.42,2.26,2.26,0,0,0,1.76-.88V17h2v7.73Z" fill="#fff"/><path d="M69.43,23.72l.88-1.43A4.41,4.41,0,0,0,73,23.35c.88,0,1.3-.35,1.3-.83,0-1.28-4.6-.24-4.6-3.28,0-1.3,1.14-2.44,3.17-2.44A4.89,4.89,0,0,1,76,17.86l-.81,1.39a3.31,3.31,0,0,0-2.29-.89c-.74,0-1.22.33-1.22.77,0,1.15,4.58.19,4.58,3.31,0,1.41-1.2,2.48-3.34,2.48A5.2,5.2,0,0,1,69.43,23.72Z" fill="#fff"/><path d="M83,24.73V20c0-1.07-.56-1.41-1.44-1.41a2.26,2.26,0,0,0-1.77.92v5.2h-2V14.05h2v4a3.57,3.57,0,0,1,2.73-1.21A2.23,2.23,0,0,1,85,19.24v5.49Z" fill="#fff"/><path d="M91.51,22.81v-4H90.23V17h1.28V14.88h2V17h1.57v1.77H93.56v3.49c0,.48.25.85.7.85a1.15,1.15,0,0,0,.71-.22l.43,1.53a2.48,2.48,0,0,1-1.7.5A1.93,1.93,0,0,1,91.51,22.81Z" fill="#fff"/><path d="M96,20.85a4.09,4.09,0,0,1,8.18,0,4.09,4.09,0,0,1-8.18,0Zm6.07,0a2,2,0,1,0-4,0,2,2,0,1,0,4,0Z" fill="#fff"/><path d="M109.84,24.73V14.05h5a3.33,3.33,0,0,1,3.58,3.44,3.34,3.34,0,0,1-3.58,3.44h-2.72v3.8Zm6.26-7.24a1.43,1.43,0,0,0-1.57-1.44h-2.41v2.88h2.41A1.44,1.44,0,0,0,116.1,17.49Z" fill="#00b4a2"/><path d="M119.57,15a1.21,1.21,0,0,1,1.22-1.2,1.21,1.21,0,1,1,0,2.41A1.22,1.22,0,0,1,119.57,15Zm.21,9.78V17h2v7.73Z" fill="#00b4a2"/><path d="M125.83,24.73,122.72,17h2.18l2,5.37,2-5.37h2.2L128,24.73Z" fill="#00b4a2"/><path d="M131.54,20.85a4.09,4.09,0,0,1,8.18,0,4.09,4.09,0,0,1-8.18,0Zm6.07,0a2,2,0,1,0-4,0,2,2,0,1,0,4,0Z" fill="#00b4a2"/><path d="M141.62,22.81v-4h-1.28V17h1.28V14.88h2V17h1.57v1.77h-1.57v3.49c0,.48.25.85.7.85a1.15,1.15,0,0,0,.71-.22l.43,1.53a2.48,2.48,0,0,1-1.7.5A1.93,1.93,0,0,1,141.62,22.81Z" fill="#00b4a2"/><path d="M151.27,24.73v-.8a3.22,3.22,0,0,1-2.45,1,2.58,2.58,0,0,1-2.69-2.56,2.48,2.48,0,0,1,2.69-2.5,3.18,3.18,0,0,1,2.45.95v-1c0-.79-.67-1.3-1.7-1.3a3.22,3.22,0,0,0-2.25.91L146.55,18a5.07,5.07,0,0,1,3.37-1.22c1.76,0,3.38.71,3.38,2.93v5Zm0-1.86v-1a2,2,0,0,0-1.63-.67c-.8,0-1.46.42-1.46,1.17s.66,1.13,1.46,1.13A2,2,0,0,0,151.27,22.87Z" fill="#00b4a2"/><path d="M155.31,24.73V14.05h2V24.73Z" fill="#00b4a2"/></g></g></svg>